<svg xmlns="http://www.w3.org/2000/svg" viewBox="0 0 290 290.41"><defs><style>.cls-1{fill:#215732;}</style></defs><title>資產 35</title><g id="圖層_2" data-name="圖層 2"><g id="圖層_1-2" data-name="圖層 1"><path class="cls-1" d="M270.39,217.24C249,193,232.81,166.88,216.28,141c-4.13-6.47-1.54-9.38,3.42-13,10.84-8,21.3-16.56,32.09-24.66,3.89-2.91,5.77-6.37,4.85-11.07-1.19-6.06-6.25-5-10.35-5q-42.93-.15-85.87,0c-5,0-10.71.42-11.09,6.69-.46,7.36,5.66,8.33,11.27,8.37,20.8.13,41.61,0,67,0-21.69,17.93-41.31,29.47-62.82,38.15-5.3,2.14-15.18,2.94-11.15,12.13,3.37,7.65,11,4.22,17.09,1.8,5.5-2.19,10.82-4.88,16.41-6.8,4.48-1.54,8.93-6.82,13.79.74,4,6.26,1.56,9.57-2.68,13.72-18.54,18.14-37.34,35.93-59.49,49.75-5.3,3.31-13.7,6.15-8.21,14.23s12.15,3.07,18.1-1.18c20.71-14.79,39.17-32.18,57.83-49.35,2.65-2.44,5.13-9.44,9.54-2.83,3,4.45,11.19,8.69,3.28,16.24-33.59,32-66.49,64.83-103.64,92.9-10.67,8.07-19.36-.42-28.68-3.3-8.74-2.7-6.41-10.2-6.42-16.31-.1-41.06.6-82.12-.3-123.15-.35-15.5,5.86-20.49,20-19.32,3.76.32,7.56-.06,11.34.06,9.23.28,14.35-3.48,13.83-13.37-.23-4.31.07-8.64.08-13,.07-28.15.16-28.3,27.59-28.33,32.95,0,65.91.66,98.83-.32,11.9-.35,17.38,4.6,22.15,14.21C296.24,123.71,295.5,169.78,270.39,217.24ZM125.25,152.86c-7.9,2.23-19.23,1.28-21.61,13.7-1.56,8.15,12.63,23.08,21.65,22.63,13-.64,14-11,14.84-20.8S136.52,153.14,125.25,152.86ZM280.05,132c-2.51-6.62-6.07-13.32-12.51-6.85a77.77,77.77,0,0,0-21.33,38.78c-.87,4.07.87,7.58,5.08,8.82,4.42,1.3,7-1.22,8.47-5.21,4-10.63,10.62-19.71,16.94-29A53.56,53.56,0,0,0,280.05,132Z"/><path class="cls-1" d="M80.54,55.43c0-3.77,0-7.53,0-11.3,0-33.85-.1-34.08,34.22-41a150.08,150.08,0,0,1,74.92,3.7c8.42,2.58,11.07,5.69,4.22,12.83-3,3.09-6.16,6.27-8.09,10C177.28,46.12,164,50.12,146,49.33c-33.91-1.47-36.43,1.61-35.93,36.34.18,12.21-1.24,19.86-16.18,18-9.28-1.12-13.56-5.06-13.4-14.36C80.7,78.05,80.56,66.74,80.54,55.43Z"/><path class="cls-1" d="M11.74,201.89C-.46,177.77-.54,154.19.3,130.33c.32-8.79,4.52-11,12.25-10.69,9.69.33,19.41-.15,29.1.19,7.76.28,17.93-2.55,21.16,7.24,3.17,9.62,3.32,20.1-4.44,28.88A503.19,503.19,0,0,1,11.74,201.89Z"/><path class="cls-1" d="M223.79,206.27a380.22,380.22,0,0,1-11,61.92,12.52,12.52,0,0,1-6.77,8.63c-22.29,10.37-45.65,14.61-73.93,13.38Z"/><path class="cls-1" d="M64.14,25.33c0,23.3,0,44,0,64.76,0,8.5-4.85,12.86-13,13.29-7.5.39-15,.14-22.55.14-25.65,0-25.94-.23-13.57-23.73C26.26,58.42,40.35,39.43,64.14,25.33Z"/><path class="cls-1" d="M63.73,178v87.26a134,134,0,0,1-42.45-43.74c-2.14-3.54,1.22-5.85,3.54-8C37,202.39,49.21,191.27,63.73,178Z"/><path class="cls-1" d="M195.09,47.7c-.15-1.05-.47-1.71-.27-2,19.08-31.28,28.38-31.15,55.78,2Z"/><path class="cls-1" d="M231.3,259.76c2.58-17.06,5-33.27,7.56-50.08C264.71,229.2,263.15,239.3,231.3,259.76Z"/></g></g></svg>