<svg xmlns="http://www.w3.org/2000/svg" viewBox="0 0 418 368"><defs><style>.cls-1{fill:#eff3f0;}</style></defs><title>資產 44</title><g id="圖層_2" data-name="圖層 2"><g id="圖層_1-2" data-name="圖層 1"><path class="cls-1" d="M207.22,0a204.46,204.46,0,0,1,52.13,6.48,277.85,277.85,0,0,1,30.85,9.59c9.78,3.69,18.95,9,27.86,14.61a221,221,0,0,1,48.66,41.18,203.91,203.91,0,0,1,24.14,34.05,202,202,0,0,1,19.92,47.41,219.27,219.27,0,0,1,6.7,71.71,205.23,205.23,0,0,1-37,104.48c-9.37,13.1-19.68,25.35-31.76,36-1,.92-1.93,2.84-3.52,2-1.42-.74-.94-2.7-.67-4,1.75-8.66,2.28-17.45,2.78-26.24.19-3.35,2.21-5.34,4.78-6.85,7.36-4.36,14.05-9.58,18-17.27,6-11.68,7.12-23.54.79-35.85-4.11-8-10.15-13.66-17.46-18.34a6.35,6.35,0,0,1-3.06-4.18,109.44,109.44,0,0,0-9.07-25.6c-1.67-3.37-.67-5.85,1.72-7.79,6.59-5.34,8.44-13,10-20.59a39.62,39.62,0,0,0-6.94-31.46c-6.73-9.34-16-16.23-28.34-17.19-2.15-.17-4.81.12-5.48-2.22-.71-2.51,2.25-2.57,3.72-3.62a21.77,21.77,0,0,0,7.76-10c1.14-3,2.39-4.17,5.65-3.57,6.27,1.15,11.22-1.48,13.68-7.17a9,9,0,0,1,3.64-4.41c6.55-3.85,7.72-10.75,2.5-16-.94-1-2.15-1.6-1.92-3.1,1.08-7.16-2.55-11.08-8.89-13.27a5,5,0,0,1-1.79-1.63c-4.27-5-9.21-6.27-15.09-2.85a3.88,3.88,0,0,1-4.19-.17c-6.77-4.47-11.47-4.14-14.29,3.1-2.57,6.61-5.78,8.52-12.5,7.87a20.68,20.68,0,0,0-16.19,5.23c-1.78,1.6-4.06,4.54-6.66,2.48A9.63,9.63,0,0,1,264,94.71c.18-3.08,1.15-6,.71-9.23-1.41-10.27-6.86-17.83-15.6-22.86-2.5-1.43-3.65-2.77-3.7-5.47-.14-6.82-3.27-11.38-10.08-13.09-.63-.15-1.63-.27-1.78-.66-2.52-6.52-9.82-8.33-13.38-13.8-3.32-5.1-11.44-8.13-17.41-6.37a8.48,8.48,0,0,1-5.18.29c-7.59-2.28-14.42.46-19.18,6.7a25.07,25.07,0,0,1-12,8.71c-.75.26-1.73.66-2.33.39-7.37-3.34-12.87.65-18.59,4.4-2.39,1.57-2.79,4-3.5,6.21-.93,3-2.56,4.51-5.66,4.12-8.19-1-13.31,3.79-18.1,9.33a6.65,6.65,0,0,0-2,4.36c.22,8-2.8,15.27-4.3,22.88-.58,2.94-.94,5.77.21,8.64a17.69,17.69,0,0,1,1,9.13,12,12,0,0,0,5.46,12.25c2.47,1.72,2.7,3.65,1.8,6.32-3.53,10.48-.91,19.57,6.8,27.18,1.92,1.9,2,2.48-.1,4.37a185.69,185.69,0,0,0-38.15,46c-8.79,15.15-16,31.26-20,48.52a16.14,16.14,0,0,1-6.17,9.38C44.38,277.53,40.55,303.68,58.44,322a44,44,0,0,0,8.76,7.38c3.3,2,4.21,5.26,4.65,8.68Q73.56,351.1,75,364.21c.13,1.17.88,2.82-.53,3.57s-2.53-.34-3.46-1.24c-7.05-6.84-14.11-13.62-20.66-21-9-10.18-15.92-21.69-23-33.09-5-8-8.31-16.93-12-25.63C7,267.45,2.68,247.05.76,226.3a187.48,187.48,0,0,1,.83-41.06,239.2,239.2,0,0,1,7.72-37.18c3.1-10.55,7.62-20.64,12.34-30.63,4.13-8.72,9.36-16.76,14.48-24.82A170,170,0,0,1,57.05,66.39,257,257,0,0,1,85.34,41.47c15.63-12.15,32.86-20.9,51-28.32,11.26-4.62,23.29-6.3,35-9.33C183.51.65,195.89-.12,207.22,0Z"/></g></g></svg>