<svg xmlns="http://www.w3.org/2000/svg" viewBox="0 0 20 80"><defs><style>.cls-1{fill:#16a27d;}</style></defs><title>資產 47</title><g id="圖層_2" data-name="圖層 2"><g id="圖層_1-2" data-name="圖層 1"><path class="cls-1" d="M16.49,80c-.89,0-1.79-.7-2.47-2.11L3.12,55.47A36.23,36.23,0,0,1,0,40,36.23,36.23,0,0,1,3.12,24.53L14,2.11c1.37-2.83,3.6-2.81,5,0a13.35,13.35,0,0,1,0,10.29L8.06,34.85A12.09,12.09,0,0,0,7,40a12,12,0,0,0,1,5.14L19,67.56a13.35,13.35,0,0,1,0,10.29C18.3,79.28,17.39,80,16.49,80"/></g></g></svg>