<svg xmlns="http://www.w3.org/2000/svg" viewBox="0 0 474.86 649.34"><defs><style>.cls-1{fill:#16a27d;}</style></defs><title>資產 45</title><g id="圖層_2" data-name="圖層 2"><g id="圖層_1-2" data-name="圖層 1"><path class="cls-1" d="M364.17,89.34H0v527a33,33,0,0,0,33,33H400V125.17A35.83,35.83,0,0,0,364.17,89.34Zm30.83,553H37.2A32.2,32.2,0,0,1,5,610.14V96.34H360.06A34.93,34.93,0,0,1,395,131.27Z"/><path class="cls-1" d="M454.63,55.36c-9.56.31-16.78-4.78-25.55-7.1a39.46,39.46,0,0,0-32.43,6.1,50.61,50.61,0,0,0,.56-5.13c1-18.09-7.14-34.49-16.91-49.23.33,2.55.77,5.11.93,7.67.38,6.17-2.37,11.8-6.64,16.2-6.24,6.26-14.49,8-21.79,12.39C338.29,45.07,331,64,337,80c3.88,9.88,5.75,12.34,5.75,12.34s9.53,3.11,27.66-4.18a48.27,48.27,0,0,0,10.41-6c2.63,2.61,11.05,10.91,22.53,15a47.11,47.11,0,0,0,46.45-8.27c14.13-11.67,20.79-28.7,25.07-45.76C469.28,49.72,464.09,55.06,454.63,55.36Zm-107,27.39c10.65-11.26,19.52-22.39,25.57-36.62C373.42,61,361.27,76.91,347.61,82.75Zm43.33-6.42c15.67-.08,30-1.34,44.73-6.74C424.74,80,404.64,82.12,390.94,76.33Z"/></g></g></svg>