<svg xmlns="http://www.w3.org/2000/svg" viewBox="0 0 140 100"><defs><style>.cls-1{fill:#16a27d;}</style></defs><title>資產 52</title><g id="圖層_2" data-name="圖層 2"><g id="圖層_1-2" data-name="圖層 1"><path class="cls-1" d="M119.77,55.36c-9.57.31-16.78-4.78-25.55-7.1a39.46,39.46,0,0,0-32.43,6.1,47.9,47.9,0,0,0,.55-5.13c1-18.09-7.14-34.49-16.9-49.23.32,2.55.77,5.11.93,7.67.38,6.17-2.38,11.8-6.64,16.2-6.25,6.26-14.5,8-21.79,12.39C3.42,45.07-3.92,64,2.12,80,6,89.84,7.87,92.3,7.87,92.3s9.54,3.11,27.66-4.18a48.19,48.19,0,0,0,10.42-6c2.63,2.61,11,10.91,22.53,15a47.11,47.11,0,0,0,46.45-8.27C129.06,77.23,135.71,60.2,140,43.14,134.42,49.72,129.23,55.06,119.77,55.36Zm-107,27.39C23.4,71.49,32.26,60.36,38.31,46.13,38.56,61,26.41,76.91,12.75,82.75Zm43.33-6.42c15.66-.08,30-1.34,44.73-6.74C89.88,80,69.77,82.12,56.08,76.33Z"/></g></g></svg>